HIERARCHY
ROOT SpineBase
{
  OFFSET 0.000000 0.000000 0.000000
  CHANNELS 6 Xposition Yposition Zposition Zrotation Xrotation Yrotation
  JOINT SpineMid
  {
    OFFSET -0.000000 33.727877 0.000000
    CHANNELS 3 Zrotation Xrotation Yrotation
    JOINT SpineShoulder
    {
      OFFSET -0.327688 25.076001 -0.950801
      CHANNELS 3 Zrotation Xrotation Yrotation
      JOINT Neck
      {
        OFFSET -0.224895 8.313265 -0.672694
        CHANNELS 3 Zrotation Xrotation Yrotation
        JOINT Head
        {
          OFFSET -1.122924 10.919145 4.376311
          CHANNELS 3 Zrotation Xrotation Yrotation
          End Site
          {
            OFFSET 0 0 0
          }
        }
      }
      JOINT ShoulderLeft
      {
        OFFSET -13.429554 -8.037113 -8.098232
        CHANNELS 3 Zrotation Xrotation Yrotation
        JOINT ElbowLeft
        {
          OFFSET -5.276326 -28.626965 0.057665
          CHANNELS 3 Zrotation Xrotation Yrotation
          JOINT WristLeft
          {
            OFFSET -1.554958 -20.935444 7.350432
            CHANNELS 3 Zrotation Xrotation Yrotation
            JOINT HandLeft
            {
              OFFSET 1.908563 -2.018225 0.564143
              CHANNELS 3 Zrotation Xrotation Yrotation
              JOINT HandTipLeft
              {
                OFFSET 1.046888 -5.386441 -0.788905
                CHANNELS 3 Zrotation Xrotation Yrotation
                End Site
                {
                  OFFSET 0 0 0
                }
              }
              JOINT ThumbLeft
              {
                OFFSET -1.916268 -1.336070 -2.907555
                CHANNELS 3 Zrotation Xrotation Yrotation
                End Site
                {
                  OFFSET 0 0 0
                }
              }
            }
          }
        }
      }
      JOINT ShoulderRight
      {
        OFFSET 10.052741 -4.238501 -6.598253
        CHANNELS 3 Zrotation Xrotation Yrotation
        JOINT ElbowRight
        {
          OFFSET 5.849812 -30.233636 -1.401006
          CHANNELS 3 Zrotation Xrotation Yrotation
          JOINT WristRight
          {
            OFFSET 1.490420 -22.529228 -2.106343
            CHANNELS 3 Zrotation Xrotation Yrotation
            JOINT HandRight
            {
              OFFSET -2.599130 -3.391291 3.504478
              CHANNELS 3 Zrotation Xrotation Yrotation
              JOINT HandTipRight
              {
                OFFSET 1.093887 -1.778298 -0.021648
                CHANNELS 3 Zrotation Xrotation Yrotation
                End Site
                {
                  OFFSET 0 0 0
                }
              }
              JOINT ThumbRight
              {
                OFFSET 0.804749 -0.814534 -1.189432
                CHANNELS 3 Zrotation Xrotation Yrotation
                End Site
                {
                  OFFSET 0 0 0
                }
              }
            }
          }
        }
      }
    }
  }
  JOINT HipLeft
  {
    OFFSET -7.483377 1.403704 -4.479893
    CHANNELS 3 Zrotation Xrotation Yrotation
    JOINT KneeLeft
    {
      OFFSET 2.775998 -29.108036 -0.464079
      CHANNELS 3 Zrotation Xrotation Yrotation
      JOINT AnkleLeft
      {
        OFFSET -0.571706 -36.387496 -2.514716
        CHANNELS 3 Zrotation Xrotation Yrotation
        JOINT FootLeft
        {
          OFFSET -7.063805 -6.755850 -3.296580
          CHANNELS 3 Zrotation Xrotation Yrotation
          End Site
          {
            OFFSET 0 0 0
          }
        }
      }
    }
  }
  JOINT HipRight
  {
    OFFSET 5.356472 1.883936 -2.390478
    CHANNELS 3 Zrotation Xrotation Yrotation
    JOINT KneeRight
    {
      OFFSET 4.025542 -30.884398 1.491037
      CHANNELS 3 Zrotation Xrotation Yrotation
      JOINT AnkleRight
      {
        OFFSET 1.634753 -34.459597 1.969463
        CHANNELS 3 Zrotation Xrotation Yrotation
        JOINT FootRight
        {
          OFFSET -12.018937 -2.156721 -7.659230
          CHANNELS 3 Zrotation Xrotation Yrotation
          End Site
          {
            OFFSET 0 0 0
          }
        }
      }
    }
  }
}
MOTION
Frames: 9
Frame Time: 0.033333
71.688588 70.847677 229.753774 0.000000 0.000000 -9.242665 -0.000000 -0.000000 9.242665 -0.000000 0.000000 0.000000 -0.000000 0.000000 0.000000 0.000000 0.000000 0.000000 -0.000000 0.000000 0.000000 -0.000000 0.000000 0.000000 -0.000000 0.000000 0.000000 -0.000000 0.000000 0.000000 0.000000 0.000000 0.000000 0.000000 0.000000 0.000000 -0.000000 0.000000 0.000000 -0.000000 0.000000 0.000000 -0.000000 0.000000 0.000000 -0.000000 0.000000 0.000000 0.000000 0.000000 0.000000 0.000000 0.000000 0.000000 -0.000000 -0.000000 9.242665 -0.000000 0.000000 0.000000 -0.000000 0.000000 0.000000 0.000000 0.000000 0.000000 -0.000000 -0.000000 9.242665 -0.000000 0.000000 0.000000 -0.000000 0.000000 0.000000 0.000000 0.000000 0.000000
71.683221 70.848508 229.707161 -0.043594 0.143657 -9.147921 0.065879 -0.134899 9.148053 -0.000000 0.000000 0.000000 -0.000000 0.000000 0.000000 0.000000 0.000000 0.000000 -0.000000 0.000000 0.000000 0.812637 -0.694658 0.341296 -9.016111 5.260160 2.267284 10.070151 -3.205958 -1.650456 0.000000 0.000000 0.000000 0.000000 0.000000 0.000000 -0.000000 0.000000 0.000000 -0.000000 0.000000 0.000000 -0.000000 0.000000 0.000000 -7.208950 -3.728058 -2.540139 0.000000 0.000000 0.000000 0.000000 0.000000 0.000000 0.065879 -0.134899 9.148053 -0.000000 0.000000 0.000000 4.965818 11.672239 -15.023967 0.000000 0.000000 0.000000 0.065879 -0.134899 9.148053 -0.000000 0.000000 0.000000 0.656301 -0.704658 1.691010 0.000000 0.000000 0.000000
71.680019 70.849542 229.665987 -0.083772 0.272562 -9.077736 0.125727 -0.255931 9.078216 -0.000000 0.000000 0.000000 -0.000000 0.000000 0.000000 0.000000 0.000000 0.000000 -0.000000 0.000000 0.000000 1.460453 -1.238025 0.618762 -16.022153 8.959410 4.469549 18.123501 -5.283789 -2.111967 0.000000 0.000000 0.000000 0.000000 0.000000 0.000000 -0.517989 0.926130 0.207491 0.455861 -2.255926 -0.283666 -0.833193 0.641006 -0.288204 -11.505845 -5.345684 -3.929264 0.000000 0.000000 0.000000 0.000000 0.000000 0.000000 0.125727 -0.255931 9.078216 -0.000000 0.000000 0.000000 12.152020 20.539565 -29.874785 0.000000 0.000000 0.000000 0.125727 -0.255931 9.078216 -0.000000 0.000000 0.000000 1.260604 -1.279499 2.966669 0.000000 0.000000 0.000000
71.678983 70.850781 229.630250 -0.120525 0.386686 -9.031962 0.179737 -0.362969 9.032938 -0.190343 0.793124 0.007376 0.190259 -0.793144 -0.004742 0.000000 0.000000 0.000000 0.190259 -0.793144 -0.004742 1.937321 -1.629059 0.825710 -21.026749 11.320983 6.185085 24.095693 -6.236553 -1.941348 0.000000 0.000000 0.000000 0.000000 0.000000 0.000000 -0.522964 0.501999 0.277288 0.614891 -3.152568 -0.394508 -0.923864 1.082266 -0.302430 -15.079132 -6.508045 -5.070201 0.000000 0.000000 0.000000 0.000000 0.000000 0.000000 0.179737 -0.362969 9.032938 -0.000000 0.000000 0.000000 19.155117 25.665638 -42.015415 0.000000 0.000000 0.000000 0.179737 -0.362969 9.032938 -0.000000 0.000000 0.000000 1.790840 -1.720527 3.785781 0.000000 0.000000 0.000000
71.680113 70.852224 229.599952 -0.153845 0.486000 -9.010454 -0.129958 0.334155 9.013849 -0.015227 0.132936 0.004354 0.245002 -0.969347 -0.004323 0.000000 0.000000 0.000000 0.245002 -0.969347 -0.004323 2.239078 -1.867513 0.957347 -24.189376 12.621134 7.229033 27.989254 -6.332417 -1.557653 0.000000 0.000000 0.000000 0.000000 0.000000 0.000000 -0.620991 0.632397 0.343476 0.729772 -3.894391 -0.485523 -0.795034 1.604156 -0.236793 -17.732841 -7.095009 -5.759812 0.000000 0.000000 0.000000 0.000000 0.000000 0.000000 0.228068 -0.455906 9.012014 -0.000000 0.000000 0.000000 24.555817 28.222952 -50.667058 0.000000 0.000000 0.000000 0.228068 -0.455906 9.012014 -0.000000 0.000000 0.000000 2.229282 -2.026181 4.117758 0.000000 0.000000 0.000000
71.683408 70.853870 229.575092 -0.183726 0.570484 -9.013069 -0.148999 0.374146 9.016925 -0.023159 0.137753 0.003782 -0.146316 -1.839914 0.086848 0.000000 0.000000 0.000000 0.295343 -1.101133 -0.003050 2.363452 -1.953635 1.010818 -25.687368 13.060197 7.551042 29.819104 -5.883282 -1.197238 0.000000 0.000000 0.000000 0.000000 0.000000 0.000000 -0.680719 0.745137 0.396768 0.801551 -4.481168 -0.557106 0.136532 2.629723 0.157750 -20.349253 -7.554919 -6.475462 0.000000 0.000000 0.000000 0.000000 0.000000 0.000000 0.270840 -0.534653 9.015247 -0.000000 0.000000 0.000000 28.183890 29.418816 -56.270310 0.000000 0.000000 0.000000 0.270840 -0.534653 9.015247 -0.000000 0.000000 0.000000 2.563223 -2.196008 3.942820 0.000000 0.000000 0.000000
71.704822 70.853964 229.580017 -0.205405 0.662358 -9.124716 -0.161271 0.421324 9.129890 -0.031170 0.140334 0.004014 -0.138050 -2.302763 0.060509 0.000000 0.000000 0.000000 0.328872 -1.244297 -0.003476 2.279690 -1.915904 0.976629 -24.032658 13.049837 7.810632 24.934032 -6.815217 -2.032882 0.000000 0.000000 0.000000 0.000000 0.000000 0.000000 -1.074700 1.081536 0.510388 1.223400 -5.471534 -0.694065 0.122320 3.135300 0.192178 -23.329706 -6.407777 -5.706469 0.000000 0.000000 0.000000 0.000000 0.000000 0.000000 0.307861 -0.621396 9.127573 -0.000000 0.000000 0.000000 30.366532 29.597154 -59.223203 0.000000 0.000000 0.000000 0.307861 -0.621396 9.127573 -0.000000 0.000000 0.000000 2.354307 -1.897394 2.723176 0.000000 0.000000 0.000000
71.714090 70.856477 229.570263 -0.228998 0.729524 -9.181717 -0.171873 0.443360 9.187319 -0.042812 0.123807 0.002450 -0.015211 -2.640897 0.003834 0.000000 0.000000 0.000000 0.370648 -1.318466 -0.001411 1.922040 -1.639431 0.821054 -21.122513 11.877820 6.939956 22.798468 -11.044175 -3.058041 0.000000 0.000000 0.000000 0.000000 0.000000 0.000000 -0.945983 1.034997 0.512433 1.147333 -5.634906 -0.706514 1.515388 4.492651 0.639181 -26.112330 -6.394214 -5.976097 0.000000 0.000000 0.000000 0.000000 0.000000 0.000000 0.838364 -1.340661 9.118455 -0.385484 0.727264 0.077969 30.561218 29.963300 -59.838433 0.000000 0.000000 0.000000 0.342492 -0.683627 9.185218 -0.000000 0.000000 0.000000 1.784494 -1.835621 4.576641 0.000000 0.000000 0.000000
71.719361 70.859944 229.559696 -0.248129 0.763818 -9.229543 -0.176643 0.430815 9.234654 -0.056978 0.094282 -0.000497 0.173698 -2.744590 -0.058825 0.000000 0.000000 0.000000 0.410358 -1.311677 0.002415 1.515687 -1.315014 0.645286 -19.273696 9.848803 4.937208 21.217689 -4.244602 -1.372471 0.000000 0.000000 0.000000 0.000000 0.000000 0.000000 -0.795280 1.054339 0.514001 1.055853 -5.582860 -0.701995 2.197557 4.357878 1.392546 -25.188578 -3.754934 -4.414859 0.000000 0.000000 0.000000 0.000000 0.000000 0.000000 0.981393 -1.426367 9.160698 -0.492730 0.800821 0.087700 28.941926 29.406772 -57.211786 0.000000 0.000000 0.000000 0.367451 -0.714121 9.233487 -0.000000 0.000000 0.000000 1.961520 -0.943656 -1.932321 0.000000 0.000000 0.000000
